<svg width="312" height="85" viewBox="0 0 312 85" fill="none" xmlns="http://www.w3.org/2000/svg">
<path d="M277.492 55V11H298V0H245V11H265.677V55H277.492Z" fill="#D20A11"/>
<path d="M85.1 77.7H87.65V79.8H85.1V82.35H83V79.8H80.45V77.7H83V75.15H85.1V77.7Z" fill="#EBE6D6"/>
<path d="M88.2506 73.5H96.3506V75.6L92.9006 84H89.9006L93.5006 75.6H88.2506V73.5Z" fill="#EBE6D6"/>
<path d="M96.9441 79.8V77.7H103.094V79.8H96.9441Z" fill="#EBE6D6"/>
<path d="M107.59 79.8C106.99 79.8 106.69 80.1 106.69 80.7V81.3C106.69 81.53 106.755 81.715 106.885 81.855C107.025 81.985 107.21 82.05 107.44 82.05H109.69C109.92 82.05 110.1 81.985 110.23 81.855C110.37 81.715 110.44 81.53 110.44 81.3V80.7C110.44 80.1 110.14 79.8 109.54 79.8H107.59ZM107.89 75.45C107.29 75.45 106.99 75.75 106.99 76.35V76.8C106.99 77.4 107.29 77.7 107.89 77.7H109.24C109.84 77.7 110.14 77.4 110.14 76.8V76.35C110.14 75.75 109.84 75.45 109.24 75.45H107.89ZM113.14 81.3C113.14 82.28 112.91 83 112.45 83.46C111.99 83.92 111.27 84.15 110.29 84.15H106.84C105.86 84.15 105.14 83.92 104.68 83.46C104.22 83 103.99 82.28 103.99 81.3V81.15C103.99 80.39 104.18 79.76 104.56 79.26C104.86 78.86 105.27 78.59 105.79 78.45C105.34 78.3 104.975 78.04 104.695 77.67C104.425 77.29 104.29 76.8 104.29 76.2V76.05C104.29 75.14 104.52 74.465 104.98 74.025C105.44 73.575 106.16 73.35 107.14 73.35H109.99C110.97 73.35 111.69 73.575 112.15 74.025C112.61 74.465 112.84 75.14 112.84 76.05V76.2C112.84 76.8 112.7 77.29 112.42 77.67C112.15 78.04 111.79 78.3 111.34 78.45C112.15 78.67 112.7 79.21 112.99 80.07C113.09 80.38 113.14 80.74 113.14 81.15V81.3Z" fill="#EBE6D6"/>
<path d="M119.439 84.15C117.769 84.15 115.919 84.05 113.889 83.85V81.825C116.099 81.975 117.749 82.05 118.839 82.05C119.069 82.05 119.249 81.985 119.379 81.855C119.519 81.715 119.589 81.53 119.589 81.3V80.7C119.589 80.1 119.289 79.8 118.689 79.8H115.539V77.7H118.389C118.989 77.7 119.289 77.4 119.289 76.8V76.5C119.289 75.9 118.989 75.6 118.389 75.6H114.039V73.5H119.139C120.119 73.5 120.839 73.725 121.299 74.175C121.759 74.615 121.989 75.29 121.989 76.2C121.989 76.8 121.849 77.29 121.569 77.67C121.299 78.04 120.939 78.3 120.489 78.45C121.299 78.67 121.849 79.21 122.139 80.07C122.239 80.38 122.289 80.74 122.289 81.15V81.3C122.289 82.28 122.059 83 121.599 83.46C121.139 83.92 120.419 84.15 119.439 84.15Z" fill="#EBE6D6"/>
<path d="M128.594 84.15C126.924 84.15 125.074 84.05 123.044 83.85V81.825C125.254 81.975 126.904 82.05 127.994 82.05C128.224 82.05 128.404 81.985 128.534 81.855C128.674 81.715 128.744 81.53 128.744 81.3V80.55C128.744 79.95 128.444 79.65 127.844 79.65H123.494V73.5H130.694V75.6H126.194V77.55H128.594C129.574 77.55 130.294 77.775 130.754 78.225C131.214 78.665 131.444 79.34 131.444 80.25V81.3C131.444 82.28 131.214 83 130.754 83.46C130.294 83.92 129.574 84.15 128.594 84.15Z" fill="#EBE6D6"/>
<path d="M140.138 76.8C140.138 77.65 139.778 78.385 139.058 79.005C138.838 79.195 138.598 79.385 138.338 79.575L135.113 81.9H140.138V84H132.038V81.15L137.438 77.25V76.5C137.438 75.9 137.138 75.6 136.538 75.6H132.338V73.5H137.138C138.188 73.5 138.948 73.74 139.418 74.22C139.898 74.69 140.138 75.45 140.138 76.5V76.8Z" fill="#EBE6D6"/>
<path d="M141.036 79.8V77.7H147.186V79.8H141.036Z" fill="#EBE6D6"/>
<path d="M155.578 76.8C155.578 77.65 155.218 78.385 154.498 79.005C154.278 79.195 154.038 79.385 153.778 79.575L150.553 81.9H155.578V84H147.478V81.15L152.878 77.25V76.5C152.878 75.9 152.578 75.6 151.978 75.6H147.778V73.5H152.578C153.628 73.5 154.388 73.74 154.858 74.22C155.338 74.69 155.578 75.45 155.578 76.5V76.8Z" fill="#EBE6D6"/>
<path d="M162.775 76.35C162.775 75.75 162.475 75.45 161.875 75.45H160.225C159.625 75.45 159.325 75.75 159.325 76.35V81.15C159.325 81.75 159.625 82.05 160.225 82.05H161.875C162.475 82.05 162.775 81.75 162.775 81.15V76.35ZM165.475 81.15C165.475 82.2 165.235 82.965 164.755 83.445C164.285 83.915 163.525 84.15 162.475 84.15H159.625C158.575 84.15 157.81 83.915 157.33 83.445C156.86 82.965 156.625 82.2 156.625 81.15V76.35C156.625 75.3 156.86 74.54 157.33 74.07C157.81 73.59 158.575 73.35 159.625 73.35H162.475C163.525 73.35 164.285 73.59 164.755 74.07C165.235 74.54 165.475 75.3 165.475 76.35V81.15Z" fill="#EBE6D6"/>
<path d="M166.524 79.8V77.7H172.674V79.8H166.524Z" fill="#EBE6D6"/>
<path d="M174.995 84V75.825L173.27 76.425L172.52 74.7L175.295 73.5H177.695V84H174.995Z" fill="#EBE6D6"/>
<path d="M186.999 76.8C186.999 77.65 186.639 78.385 185.919 79.005C185.699 79.195 185.459 79.385 185.199 79.575L181.974 81.9H186.999V84H178.899V81.15L184.299 77.25V76.5C184.299 75.9 183.999 75.6 183.399 75.6H179.199V73.5H183.999C185.049 73.5 185.809 73.74 186.279 74.22C186.759 74.69 186.999 75.45 186.999 76.5V76.8Z" fill="#EBE6D6"/>
<path d="M187.896 79.8V77.7H194.046V79.8H187.896Z" fill="#EBE6D6"/>
<path d="M201.242 76.35C201.242 75.75 200.942 75.45 200.342 75.45H198.692C198.092 75.45 197.792 75.75 197.792 76.35V81.15C197.792 81.75 198.092 82.05 198.692 82.05H200.342C200.942 82.05 201.242 81.75 201.242 81.15V76.35ZM203.942 81.15C203.942 82.2 203.702 82.965 203.222 83.445C202.752 83.915 201.992 84.15 200.942 84.15H198.092C197.042 84.15 196.277 83.915 195.797 83.445C195.327 82.965 195.092 82.2 195.092 81.15V76.35C195.092 75.3 195.327 74.54 195.797 74.07C196.277 73.59 197.042 73.35 198.092 73.35H200.942C201.992 73.35 202.752 73.59 203.222 74.07C203.702 74.54 203.942 75.3 203.942 76.35V81.15Z" fill="#EBE6D6"/>
<path d="M205.591 81.825C207.651 81.975 209.101 82.05 209.941 82.05C210.171 82.05 210.351 81.985 210.481 81.855C210.621 81.715 210.691 81.53 210.691 81.3V79.95C209.721 80.15 208.871 80.25 208.141 80.25H207.091C206.411 80.25 205.866 80.045 205.456 79.635C205.046 79.225 204.841 78.68 204.841 78V76.05C204.841 75.14 205.071 74.465 205.531 74.025C205.991 73.575 206.711 73.35 207.691 73.35H210.541C211.521 73.35 212.241 73.575 212.701 74.025C213.161 74.465 213.391 75.14 213.391 76.05V81.3C213.391 82.28 213.161 83 212.701 83.46C212.241 83.92 211.521 84.15 210.541 84.15C209.171 84.15 207.521 84.05 205.591 83.85V81.825ZM208.891 78.15C209.461 78.15 210.061 78.1 210.691 78V76.35C210.691 75.75 210.391 75.45 209.791 75.45H208.441C207.841 75.45 207.541 75.75 207.541 76.35V77.625C207.541 77.775 207.591 77.9 207.691 78C207.791 78.1 207.916 78.15 208.066 78.15H208.891Z" fill="#EBE6D6"/>
<path d="M0 65H312V68H0V65Z" fill="#EBE6D6"/>
<path d="M52.7383 52.2339C51.6462 52.8605 50.5182 53.3976 49.3545 53.8452C48.2087 54.2749 47.0718 54.633 45.9438 54.9194C44.8338 55.2059 43.7596 55.4118 42.7212 55.5371C41.7007 55.6624 40.7607 55.7251 39.9014 55.7251C38.7197 55.7251 37.4844 55.6714 36.1953 55.564C34.9062 55.4744 33.6261 55.2865 32.355 55C31.0838 54.6956 29.8485 54.2749 28.6489 53.7378C27.4673 53.2007 26.3752 52.4935 25.3726 51.6162C24.4595 50.8284 23.627 49.9333 22.875 48.9307C22.123 47.9281 21.4785 46.818 20.9414 45.6006C20.4043 44.3652 19.9836 43.0135 19.6792 41.5454C19.3927 40.0773 19.2495 38.4749 19.2495 36.7383C19.2495 33.999 19.7061 31.4836 20.6191 29.1919C21.5501 26.9002 22.9466 24.8324 24.8086 22.9883C25.7038 22.111 26.6974 21.3501 27.7896 20.7056C28.8817 20.061 30.0454 19.5329 31.2808 19.1211C32.5161 18.7093 33.8052 18.4049 35.1479 18.208C36.5086 17.9932 37.8962 17.8857 39.3105 17.8857C41.5843 17.8857 43.7775 18.1274 45.8901 18.6108C48.0028 19.0763 50.1064 19.8193 52.2012 20.8398L49.9722 27.3926C48.2713 26.4795 46.5615 25.7902 44.8428 25.3247C43.1419 24.8592 41.3963 24.6265 39.606 24.6265C37.9767 24.6265 36.4012 24.8324 34.8794 25.2441C33.3576 25.6559 32.0148 26.4258 30.8511 27.5537C29.8127 28.5742 28.9801 29.8722 28.3535 31.4478C27.7269 33.0233 27.4136 34.7868 27.4136 36.7383C27.4136 38.7793 27.7358 40.6323 28.3804 42.2974C29.0428 43.9624 29.9648 45.2873 31.1465 46.272C31.8268 46.8449 32.5072 47.3104 33.1875 47.6685C33.8857 48.0086 34.6108 48.2772 35.3628 48.4741C36.1147 48.6532 36.9115 48.7785 37.7529 48.8501C38.6123 48.9217 39.5343 48.9575 40.519 48.9575C41.3784 48.9575 42.2467 48.8859 43.124 48.7427C44.0013 48.5815 44.8696 48.3667 45.729 48.0981C46.6063 47.8296 47.4478 47.5163 48.2534 47.1582C49.077 46.7822 49.8468 46.3794 50.563 45.9497L52.7383 52.2339Z" fill="#EBE6D6"/>
<path d="M90.6528 34.9121L91.002 30.5615H90.814L88.1553 34.8853L72.5791 55H66.8857V18.584H74.5664V38.1885L74.1099 42.7808H74.3784L77.1982 38.2959L92.5864 18.584H98.3872V55H90.6528V34.9121Z" fill="#EBE6D6"/>
<path d="M137.483 25.3516H127.923C127.744 28.6637 127.538 31.6447 127.305 34.2944C127.09 36.9442 126.795 39.3254 126.419 41.438C126.061 43.5327 125.595 45.4036 125.022 47.0508C124.467 48.68 123.769 50.1392 122.928 51.4282C122.355 52.216 121.719 52.8695 121.021 53.3887C120.341 53.9079 119.642 54.3197 118.926 54.624C118.228 54.9105 117.53 55.1074 116.832 55.2148C116.151 55.3402 115.516 55.4028 114.925 55.4028C114.209 55.4028 113.546 55.3312 112.938 55.188C112.329 55.0627 111.738 54.8657 111.165 54.5972L111.998 48.1519C112.374 48.2772 112.821 48.3398 113.34 48.3398C113.931 48.3398 114.522 48.2056 115.113 47.937C115.704 47.6506 116.223 47.194 116.67 46.5674C117.225 45.8154 117.727 44.7233 118.174 43.291C118.64 41.8587 119.043 40.0146 119.383 37.7588C119.723 35.5029 120 32.7995 120.215 29.6484C120.43 26.4795 120.573 22.7913 120.645 18.584H145.164V55H137.483V25.3516Z" fill="#EBE6D6"/>
<path d="M183.24 47.2656H168.12L164.817 55H157.109L173.035 18.3423H178.701L194.68 55H186.516L183.24 47.2656ZM170.725 41.1694H180.662L177.466 33.5693L175.828 28.8696H175.613L173.948 33.623L170.725 41.1694Z" fill="#EBE6D6"/>
<path d="M230.715 39.9609H214.602V55H206.921V18.584H214.602V33.2202H230.715V18.584H238.422V55H230.715V39.9609Z" fill="#EBE6D6"/>
</svg>
